<?xml version="1.0" encoding="utf-8"?>
<!-- Generator: Adobe Illustrator 22.0.1, SVG Export Plug-In . SVG Version: 6.00 Build 0)  -->
<svg version="1.1" id="Layer_1" xmlns="http://www.w3.org/2000/svg" xmlns:xlink="http://www.w3.org/1999/xlink" x="0px" y="0px"
	 viewBox="0 0 746 525" style="enable-background:new 0 0 746 525;" xml:space="preserve">
<style type="text/css">
	.st0{fill:#939393;}
	.st1{fill:#3B61FF;}
</style>
<title>Slice 1</title>
<path class="st0" d="M596.5,241h-90.2c-0.3-11.5-1.1-22.8-2.2-34h-30.2c1.2,11.1,2,22.5,2.3,34H386v-34h-30v34h-90.2
	c0.4-11.5,1.1-22.9,2.3-34h-30.2c-1.1,11.1-1.8,22.5-2.2,34h-90.2c0.8-11.5,2.4-22.9,4.8-34h-30.7c-3.1,16-4.7,32.4-4.7,49
	c0,68.4,26.6,132.7,75,181c48.4,48.4,112.6,75,181,75s132.7-26.6,181-75c48.4-48.4,75-112.6,75-181c0-16.6-1.6-33-4.7-49h-30.7
	C594.1,218.1,595.7,229.5,596.5,241z M171.1,361.5c-14.7-27.8-23.4-58.5-25.5-90.4h90.2c0.9,31.6,4.8,62.2,11.5,90.4H171.1z
	 M211.2,415.8L211.2,415.8c-7.6-7.6-14.6-15.7-21.1-24.3h65.4c4.8,14.8,10.4,28.8,16.9,41.6c6.8,13.5,14.2,25.5,22.2,35.7
	C263.6,457.7,235.2,439.8,211.2,415.8z M299.2,419.7c-4.4-8.8-8.4-18.2-12-28.2H356v87.9C335.3,472.5,315.2,451.6,299.2,419.7z
	 M356,361.5h-77.9c-7.1-27.8-11.3-58.5-12.3-90.4H356V361.5z M386,271h90.2c-1,32-5.2,62.6-12.3,90.4H386V271z M386,479.4L386,479.4
	l0-87.9h68.7c-3.6,9.9-7.6,19.4-12,28.2C426.8,451.6,406.7,472.5,386,479.4z M530.8,415.8L530.8,415.8c-24,24-52.4,41.9-83.4,53
	c8-10.2,15.5-22.1,22.2-35.7c6.4-12.8,12-26.8,16.9-41.6h65.4C545.4,400.1,538.4,408.2,530.8,415.8z M570.9,361.5h-76.1
	c6.6-28.2,10.5-58.8,11.5-90.4h90.2C594.4,303,585.7,333.7,570.9,361.5z"/>
<path d="M150.4,207c4.3-19.7,11.3-38.7,20.7-56.5h76.1c-4.2,18-7.3,36.9-9.3,56.5h30.2c2.1-19.7,5.4-38.7,10-56.5H356V207h30v-56.5
	h77.9c4.5,17.8,7.9,36.8,10,56.5h30.2c-1.9-19.6-5.1-38.5-9.3-56.5h76.1c9.4,17.8,16.3,36.7,20.7,56.5h30.7
	c-9.6-49.7-33.7-95.4-70.3-132v0C503.7,26.6,439.4,0,371,0S238.3,26.6,190,75c-36.6,36.6-60.7,82.3-70.3,132H150.4z M530.8,96.2
	c7.6,7.6,14.6,15.7,21.1,24.3h-65.4c-4.8-14.8-10.4-28.8-16.9-41.6c-6.8-13.5-14.2-25.5-22.2-35.7C478.4,54.3,506.8,72.2,530.8,96.2
	z M386,32.6c20.7,6.9,40.8,27.8,56.7,59.7c4.4,8.8,8.4,18.2,12,28.2H386V32.6z M356,32.6v87.9h-68.7c3.6-9.9,7.6-19.4,12-28.2
	C315.2,60.4,335.3,39.5,356,32.6z M211.2,96.2c24-24,52.4-41.9,83.4-53c-8,10.2-15.5,22.1-22.2,35.7c-6.4,12.8-12,26.8-16.9,41.6
	h-65.4C196.6,111.9,203.6,103.8,211.2,96.2z"/>
<rect x="0.5" y="177" class="st1" width="745" height="30"/>
</svg>
